<?xml version="1.0" encoding="utf-8"?>
<!-- Generator: Adobe Illustrator 16.0.3, SVG Export Plug-In . SVG Version: 6.00 Build 0)  -->
<!DOCTYPE svg PUBLIC "-//W3C//DTD SVG 1.1//EN" "http://www.w3.org/Graphics/SVG/1.1/DTD/svg11.dtd">
<svg version="1.1" id="Calque_3" xmlns="http://www.w3.org/2000/svg" xmlns:xlink="http://www.w3.org/1999/xlink" x="0px" y="0px"
	 width="450px" height="240px" viewBox="0 0 450 240" enable-background="new 0 0 450 240" xml:space="preserve">
<g>
	<path fill-rule="evenodd" clip-rule="evenodd" d="M33.718,90.253c1.297,0.316,2.629,0.529,3.884,0.967
		c6.87,2.397,9.096,9.385,6.869,14.992c-1.096,2.757-3.402,4.143-6.072,5.041c-0.675,0.228-1.372,0.392-2.291,0.65
		c0.533,0.128,0.84,0.208,1.15,0.276c5.109,1.121,7.291,3.815,7.337,9.068c0.01,1.22-0.023,2.439,0.02,3.658
		c0.049,1.361,0.609,1.817,1.934,1.664c2.511-0.288,3.815,0.649,4.375,3.146c0.55,2.451-0.548,4.914-2.576,5.761
		c-1.149,0.479-2.346,0.495-3.507,0.142c-1.751-0.533-3.453-0.412-5.208-0.003c-3.894,0.904-6.653-0.951-7.121-4.931
		c-0.252-2.146-0.229-4.346-0.111-6.51c0.238-4.368-1.39-6.388-5.748-6.782c-1.004-0.09-2.022-0.075-3.032-0.038
		c-1.244,0.046-1.984,0.689-2.009,1.919c-0.039,1.887-0.027,3.786,0.134,5.667c0.15,1.735,0.887,2.164,2.59,1.793
		c0.38-0.083,0.761-0.155,1.143-0.23c1.458-0.289,2.563,0.275,3.291,1.506c1.141,1.923,1.122,3.92,0.014,5.836
		c-0.935,1.616-2.52,2.099-4.276,1.987c-2.223-0.141-4.44-0.515-6.662-0.53c-2.765-0.021-5.532,0.224-8.298,0.348
		c-1.319,0.061-2.646,0.229-3.954,0.134c-2.135-0.153-3.395-1.314-3.954-3.366c-0.039-0.146-0.105-0.285-0.16-0.426
		c0-0.727,0-1.455,0-2.182c0.046-0.088,0.11-0.17,0.137-0.264c0.76-2.649,2.111-3.456,4.801-2.865
		c2.071,0.455,2.669,0.047,2.959-2.062c0.067-0.485,0.065-0.983,0.066-1.475c0.007-1.998,0.005-3.992,0.002-5.989
		c-0.006-5.029,0.001-10.058-0.042-15.088c-0.005-0.679-0.206-1.379-0.433-2.029c-0.242-0.69-0.811-0.979-1.556-0.831
		c-0.533,0.105-1.065,0.215-1.597,0.326c-1.646,0.343-2.922-0.227-3.699-1.715c-0.271-0.52-0.43-1.097-0.64-1.648
		c0-0.727,0-1.453,0-2.18c0.534-1.879,1.623-3.226,3.582-3.738c1.298,0,2.595,0,3.894,0c0.067,0.037,0.132,0.103,0.2,0.106
		c2.946,0.169,5.89,0.431,8.838,0.464c2.741,0.032,5.485-0.167,8.228-0.294c1.151-0.053,2.298-0.182,3.448-0.276
		C31.019,90.253,32.368,90.253,33.718,90.253z M21.37,104.361c0.009,0,0.017,0.001,0.026,0.001c0,0.93-0.049,1.864,0.014,2.789
		c0.064,0.958,0.55,1.521,1.479,1.62c2.529,0.268,5.023,0.086,7.334-1.083c1.878-0.951,2.641-2.564,2.403-4.629
		c-0.217-1.886-1.453-2.908-3.15-3.445c-1.997-0.632-4.035-0.532-6.071-0.217c-1.15,0.178-1.804,0.855-1.891,2.021
		C21.442,102.396,21.417,103.38,21.37,104.361z"/>
	<path fill-rule="evenodd" clip-rule="evenodd" d="M315.61,90.253c1.239,0.21,2.485,0.382,3.717,0.637
		c3.285,0.68,6.052,2.205,7.765,5.196c2.981,5.204,1.452,12.641-6.021,14.441c-0.148,0.035-0.294,0.088-0.581,0.174
		c0.807,0.319,1.488,0.625,2.193,0.864c4.559,1.547,7.113,4.74,7.512,9.499c0.407,4.865-1.223,8.934-5.321,11.807
		c-2.351,1.646-5.059,2.306-7.855,2.71c-3.423,0.493-6.833,0.091-10.24-0.115c-4.097-0.245-8.177-0.3-12.263,0.192
		c-2.24,0.271-4.501,0.367-6.719-0.241c-3.555-0.974-4.813-4.989-2.462-7.855c0.729-0.891,1.67-1.281,2.823-1.08
		c0.688,0.119,1.371,0.268,2.062,0.377c0.825,0.132,1.397-0.252,1.593-1.024c0.208-0.82,0.391-1.676,0.393-2.518
		c0.032-6.877,0.028-13.753,0.004-20.627c-0.003-0.77-0.126-1.557-0.324-2.3c-0.269-1.002-0.855-1.318-1.875-1.148
		c-0.588,0.097-1.164,0.265-1.752,0.346c-1.996,0.274-3.546-1.032-3.946-3.302c-0.568-3.227,1.103-5.34,4.633-5.867
		c0.222-0.033,0.438-0.108,0.657-0.165c1.506,0,3.012,0,4.517,0c0.552,0.08,1.101,0.197,1.655,0.231
		c2.092,0.133,4.184,0.313,6.277,0.331c1.836,0.017,3.674-0.146,5.509-0.257c1.232-0.075,2.459-0.202,3.689-0.306
		C312.702,90.253,314.155,90.253,315.61,90.253z M304.423,120.545c-0.031,0.001-0.063,0.002-0.094,0.004
		c0.073,1.293,0.084,2.591,0.239,3.873c0.138,1.129,0.835,1.879,1.977,2.124c0.758,0.164,1.523,0.315,2.294,0.404
		c2.164,0.253,4.301,0.23,6.267-0.901c1.569-0.903,2.53-2.217,2.528-4.082c-0.002-2.581-1.567-4.074-3.726-5.055
		c-2.505-1.14-5.189-1.115-7.865-0.993c-1.294,0.058-1.562,0.358-1.612,1.671C304.391,118.574,304.423,119.559,304.423,120.545z
		 M304.335,103.813c0.021,0.001,0.042,0.003,0.062,0.004c0,0.726-0.004,1.451,0.001,2.177c0.01,1.227,0.271,1.58,1.467,1.604
		c1.499,0.032,3.015,0.063,4.493-0.136c1.208-0.162,2.432-0.533,3.54-1.048c1.458-0.678,2.136-1.965,2.103-3.603
		c-0.032-1.596-0.919-2.604-2.271-3.241c-2.465-1.16-5.057-1.2-7.673-0.687c-0.863,0.171-1.408,0.792-1.504,1.679
		C304.438,101.641,304.404,102.729,304.335,103.813z"/>
	<path fill-rule="evenodd" clip-rule="evenodd" d="M248.642,90.253c1.633,0.417,2.163,1.573,2.163,3.139
		c-0.003,8.823,0.011,17.646,0.016,26.468c0.001,1.661-0.027,3.322-0.016,4.981c0.005,0.542,0.049,1.091,0.156,1.62
		c0.271,1.344,0.718,1.613,2.072,1.346c0.456-0.09,0.915-0.188,1.377-0.232c2.299-0.221,3.681,0.941,3.857,3.23
		c0.249,3.225-1.897,5.334-5.105,4.995c-0.772-0.082-1.544-0.198-2.302-0.363c-1.845-0.399-3.652-0.205-5.471,0.184
		c-2.798,0.597-3.733-0.188-3.733-3.062c0-0.492,0-0.983,0-1.641c-0.191,0.244-0.3,0.359-0.384,0.491
		c-2.181,3.436-5.406,5.086-9.374,5.235c-6.396,0.241-10.579-3.104-12.933-8.73c-2.893-6.911-2.578-13.855,0.99-20.468
		c2.623-4.861,6.878-7.125,12.421-6.74c2.882,0.198,5.173,1.7,7.228,3.615c0.254,0.237,0.509,0.475,0.819,0.764
		c0-1.907,0.098-3.689-0.031-5.456c-0.101-1.361-0.69-1.66-2.021-1.378c-0.406,0.086-0.809,0.206-1.22,0.242
		c-2.573,0.23-3.908-0.964-4.005-3.554c-0.081-2.184,0.91-3.797,2.878-4.687c0.676,0,1.351,0,2.025,0
		c2.751,0.845,5.503,0.77,8.253,0C247.083,90.253,247.863,90.253,248.642,90.253z M240.498,119.027
		c-0.048-3.27-1.033-6.052-3.587-8.161c-2.539-2.098-5.52-1.744-7.11,1.123c-2.211,3.989-2.572,8.24-0.798,12.493
		c1.926,4.622,7.272,3.943,9.434,1.037C239.892,123.563,240.397,121.33,240.498,119.027z"/>
	<path fill-rule="evenodd" clip-rule="evenodd" d="M414.973,149.746c-0.982-0.205-1.976-0.367-2.945-0.62
		c-1.755-0.458-3.345-1.251-4.668-2.519c-2.177-2.081-2.836-5.376-1.577-7.843c1.645-3.228,6.14-4.07,8.477-1.592
		c1.053,1.117,1.325,2.235,1.072,4.438c0.811,0.632,1.718,0.705,2.615,0.266c2.015-0.988,3.369-2.608,3.964-4.745
		c0.199-0.714,0.062-1.631-0.207-2.348c-1.321-3.538-2.7-7.058-4.133-10.554c-1.669-4.07-3.415-8.111-5.131-12.164
		c-0.151-0.358-0.319-0.707-0.491-1.056c-0.45-0.907-1.086-1.312-2.186-1.171c-2.416,0.308-3.622-0.933-3.63-3.627
		c-0.003-0.614,0.098-1.245,0.256-1.84c0.482-1.823,1.764-2.816,3.644-2.731c1.291,0.059,2.578,0.256,3.857,0.45
		c2.342,0.357,4.653,0.089,6.97-0.226c0.847-0.114,1.702-0.21,2.555-0.233c2.524-0.067,3.931,1.293,3.993,3.813
		c0.045,1.817-0.604,2.669-2.37,3.106c-1.998,0.494-2.243,0.853-1.615,2.812c1.469,4.585,2.986,9.155,4.486,13.731
		c0.038,0.116,0.11,0.221,0.22,0.436c0.729-2.126,1.419-4.149,2.113-6.169c0.818-2.375,1.645-4.746,2.456-7.122
		c0.168-0.491,0.308-0.991,0.425-1.494c0.256-1.102,0.083-1.431-0.944-1.876c-0.285-0.124-0.579-0.228-0.858-0.361
		c-1.61-0.768-2.161-2.118-1.686-4.115c0.399-1.674,1.708-2.806,3.305-2.755c0.902,0.028,1.815,0.134,2.699,0.316
		c2.487,0.511,4.95,0.285,7.422-0.1c0.868-0.134,1.753-0.217,2.632-0.219c1.655-0.002,2.859,0.915,3.388,2.479
		c0.105,0.312,0.208,0.624,0.313,0.936c0,0.727,0,1.453,0,2.181c-0.061,0.164-0.131,0.325-0.181,0.494
		c-0.51,1.742-1.71,2.462-3.497,2.094c-1.436-0.296-1.887-0.09-2.549,1.208c-0.188,0.369-0.34,0.756-0.482,1.144
		c-2.231,6.07-4.432,12.151-6.695,18.21c-1.59,4.255-3.486,8.367-6.267,12.006c-2.345,3.07-5.173,5.517-8.948,6.657
		c-1.028,0.31-2.101,0.474-3.152,0.704C416.737,149.746,415.855,149.746,414.973,149.746z"/>
	<path fill-rule="evenodd" clip-rule="evenodd" d="M103.311,106.445c0.87-0.83,1.598-1.593,2.397-2.274
		c2.811-2.4,6.026-3.687,9.777-3.498c5.563,0.279,9.948,4.353,10.239,9.905c0.249,4.762,0.137,9.543,0.2,14.315
		c0.009,0.618,0.061,1.245,0.173,1.853c0.214,1.154,0.701,1.419,1.82,1.072c2.429-0.753,3.987,0.265,4.189,2.804
		c0.061,0.765,0.006,1.566-0.156,2.315c-0.422,1.955-1.927,3.045-3.925,2.887c-1.99-0.16-3.977-0.36-5.962-0.564
		c-2.82-0.289-5.583,0.285-8.367,0.532c-1.124,0.1-1.511-0.088-1.903-1.135c-0.674-1.796-0.764-3.655-0.288-5.505
		c0.377-1.47,1.323-1.902,2.71-1.313c0.652,0.277,1.033,0.075,1.136-0.563c0.142-0.892,0.268-1.798,0.275-2.698
		c0.026-2.958,0.013-5.916-0.023-8.875c-0.01-0.799-0.094-1.609-0.252-2.391c-0.562-2.768-2.621-4.006-5.318-3.173
		c-2.614,0.808-4.394,2.508-4.511,5.319c-0.154,3.725-0.087,7.463-0.005,11.192c0.03,1.34,0.366,1.458,1.588,1.024
		c0.874-0.31,1.732-0.051,2.091,0.823c0.87,2.118,0.844,4.257-0.271,6.291c-0.449,0.818-1.266,1.121-2.195,1.034
		c-1.832-0.172-3.665-0.351-5.495-0.539c-2.421-0.248-4.814,0.025-7.208,0.343c-0.693,0.092-1.39,0.177-2.087,0.208
		c-1.033,0.044-1.813-0.454-2.303-1.326c-0.957-1.7-1.078-3.515-0.423-5.33c0.496-1.375,1.853-1.913,3.417-1.501
		c1.821,0.48,2.119,0.319,2.344-1.556c0.12-0.999,0.073-2.018,0.078-3.028c0.015-3.451,0.038-6.903,0.015-10.354
		c-0.005-0.796-0.11-1.607-0.301-2.379c-0.207-0.836-0.664-1.084-1.45-0.786c-2.93,1.116-4.556-0.646-4.473-3.485
		c0.036-1.22,0.239-2.372,0.956-3.385c0.532-0.752,1.271-1.149,2.2-1.072c0.799,0.066,1.613,0.122,2.385,0.32
		c1.761,0.451,3.488,0.318,5.232-0.071c0.678-0.15,1.383-0.233,2.077-0.245c0.916-0.014,1.404,0.413,1.532,1.32
		c0.09,0.637,0.068,1.291,0.083,1.938C103.319,105.375,103.311,105.855,103.311,106.445z"/>
	<path fill-rule="evenodd" clip-rule="evenodd" d="M199.587,131.168c-2.994,3.649-6.774,5.282-11.161,5.434
		c-3.534,0.123-6.81-0.76-9.247-3.581c-1.521-1.761-1.952-3.946-1.994-6.17c-0.083-4.385-0.026-8.772-0.049-13.157
		c-0.006-0.982-0.032-1.976-0.178-2.944c-0.179-1.194-0.696-1.454-1.854-1.102c-2.478,0.757-4.1-0.403-4.175-2.995
		c-0.014-0.491-0.027-0.993,0.048-1.476c0.302-1.934,1.579-3.046,3.807-3.394c1.295-0.201,2.58-0.25,3.854,0.131
		c1.745,0.521,3.479,0.373,5.225-0.022c0.677-0.155,1.384-0.249,2.077-0.247c0.928,0.003,1.433,0.521,1.495,1.452
		c0.042,0.646,0,1.297,0,1.945c0.008,5.735,0.008,11.471,0.034,17.207c0.002,0.644,0.125,1.288,0.215,1.929
		c0.405,2.902,3.329,4.244,5.885,3.349c2.376-0.83,3.541-2.681,4.124-4.977c0.202-0.798,0.309-1.639,0.321-2.46
		c0.044-2.775,0.028-5.551,0.029-8.326c0-0.258-0.027-0.52-0.075-0.773c-0.28-1.485-0.664-1.712-2.122-1.274
		c-2.094,0.627-3.629-0.342-3.9-2.508c-0.076-0.612-0.084-1.246-0.024-1.859c0.174-1.776,1.132-2.918,2.843-3.387
		c1.368-0.375,2.766-0.517,4.149-0.111c1.848,0.54,3.676,0.476,5.529,0.035c0.699-0.165,1.437-0.251,2.154-0.24
		c1.121,0.017,1.635,0.554,1.753,1.672c0.032,0.309,0.031,0.622,0.031,0.933c0.001,6.852-0.005,13.703,0.01,20.557
		c0.002,0.693,0.078,1.4,0.228,2.077c0.234,1.065,0.642,1.244,1.688,0.974c0.569-0.147,1.167-0.288,1.748-0.271
		c1.094,0.031,1.841,0.651,2.207,1.674c0.525,1.474,0.486,2.965-0.084,4.411c-0.592,1.502-2.046,2.331-3.684,2.145
		c-0.874-0.1-1.748-0.233-2.608-0.422c-1.35-0.295-2.673-0.231-4.003,0.103c-0.478,0.12-0.964,0.205-1.45,0.277
		c-1.732,0.258-2.746-0.561-2.841-2.318C199.557,132.764,199.587,132.068,199.587,131.168z"/>
	<path fill-rule="evenodd" clip-rule="evenodd" d="M391.805,132.552c-2.679,2.457-5.772,3.714-9.254,4.038
		c-3.16,0.293-6.23-0.032-9.021-1.679c-3.224-1.901-4.691-4.784-4.525-8.504c0.038-0.851,0.098-1.713,0.267-2.545
		c0.604-2.961,2.36-5.006,5.094-6.248c2.484-1.131,5.172-1.446,7.809-1.987c1.515-0.31,3.052-0.637,4.487-1.193
		c2.119-0.824,3.017-2.709,2.455-4.672c-0.424-1.481-1.982-2.544-3.93-2.654c-0.385-0.021-0.781-0.007-1.161,0.06
		c-0.997,0.173-1.325,0.563-1.309,1.587c0.022,1.374-0.029,2.732-1.118,3.75c-1.816,1.701-4.013,1.982-6.313,1.41
		c-2.145-0.536-3.649-1.901-4.124-4.108c-0.502-2.325,0.122-4.373,1.964-5.96c1.745-1.502,3.859-2.219,6.065-2.624
		c4.59-0.844,9.184-0.85,13.738,0.246c4.557,1.096,6.966,3.998,7.073,8.697c0.115,5.084,0.073,10.168,0.101,15.253
		c0,0.285-0.012,0.571,0.006,0.855c0.087,1.454,0.41,1.745,1.857,1.69c2.074-0.079,3.172,0.51,3.788,2.031
		c0.694,1.718,0.219,3.783-1.158,4.98c-1.225,1.063-2.703,1.53-4.278,1.657c-2.128,0.168-4.195-0.081-6.074-1.214
		C393.145,134.758,392.354,133.822,391.805,132.552z M389.418,121.137c-1.352,0.392-2.478,0.738-3.616,1.041
		c-1.472,0.391-2.974,0.679-4.422,1.141c-0.9,0.286-1.558,0.961-1.569,2.007c-0.015,1.084,0.398,1.966,1.371,2.529
		c2.671,1.545,6.744,0.063,7.631-2.879C389.186,123.737,389.229,122.4,389.418,121.137z"/>
	<path fill-rule="evenodd" clip-rule="evenodd" d="M157.509,132.601c-4.71,3.955-9.996,4.97-15.739,3.397
		c-3.554-0.973-6.157-3.2-6.871-6.982c-0.678-3.586-0.229-7.012,2.571-9.711c1.74-1.679,3.984-2.379,6.281-2.878
		c2.327-0.504,4.671-0.931,7.003-1.416c0.478-0.1,0.943-0.278,1.396-0.467c2.134-0.89,3.076-2.455,2.726-4.5
		c-0.273-1.598-1.949-2.832-4.025-2.938c-0.411-0.021-0.833,0.001-1.237,0.079c-0.89,0.172-1.222,0.598-1.243,1.508
		c-0.01,0.441,0,0.882-0.014,1.323c-0.034,1.099-0.492,2.001-1.302,2.726c-2.595,2.323-7.458,1.747-9.427-1.111
		c-1.631-2.367-1.138-5.781,1.136-7.746c1.699-1.468,3.746-2.182,5.901-2.612c4.507-0.9,9.031-0.896,13.514,0.08
		c5.144,1.12,7.491,4.115,7.571,9.601c0.072,4.929,0.028,9.86,0.039,14.789c0.001,0.336-0.008,0.68,0.047,1.009
		c0.165,0.998,0.497,1.241,1.52,1.221c0.595-0.011,1.208-0.07,1.782,0.043c1.913,0.377,3.005,2.481,2.493,4.672
		c-0.438,1.87-1.748,2.906-3.449,3.473c-2.504,0.833-5.01,0.713-7.443-0.316C159.247,135.211,158.162,134.127,157.509,132.601z
		 M155.091,121.226c-1.688,0.416-3.154,0.767-4.614,1.142c-1.149,0.295-2.316,0.551-3.428,0.954
		c-0.854,0.308-1.503,0.911-1.533,1.946c-0.033,1.128,0.367,2.024,1.371,2.594c2.662,1.509,6.664,0.08,7.598-2.824
		C154.878,123.812,154.905,122.467,155.091,121.226z"/>
	<path fill-rule="evenodd" clip-rule="evenodd" d="M74.648,120.468c-2.854,0-5.708,0-8.562,0c-1.35-0.001-1.818,0.482-1.724,1.771
		c0.2,2.758,1.594,4.699,4.151,5.672c2.644,1.006,5.098,0.588,7.183-1.432c0.67-0.65,1.293-1.351,1.999-1.959
		c1.594-1.372,3.461-1.604,5.407-1.012c2.269,0.689,3.266,2.883,2.553,5.408c-0.547,1.938-1.801,3.354-3.381,4.521
		c-2.308,1.703-4.939,2.599-7.747,2.991c-3.726,0.52-7.418,0.374-10.941-1.066c-5.596-2.291-8.7-6.624-9.736-12.458
		c-0.861-4.849-0.378-9.579,2.026-13.963c2.571-4.688,6.617-7.315,11.872-8.086c2.692-0.395,5.386-0.287,8.036,0.35
		c5.748,1.379,8.967,5.239,10.219,10.811c0.402,1.791,0.375,3.704,0.348,5.558c-0.029,1.996-0.912,2.767-2.908,2.892
		c-0.336,0.021-0.673,0.027-1.011,0.027c-2.594,0.003-5.189,0.001-7.784,0.001C74.648,120.483,74.648,120.477,74.648,120.468z
		 M70.317,113.272c0-0.017,0-0.034,0-0.051c1.296,0,2.592,0.004,3.888-0.001c1.221-0.004,1.625-0.536,1.321-1.724
		c-0.454-1.775-1.923-3.095-3.796-3.324c-3.374-0.411-4.954,0.706-6.749,3.257c-0.675,0.959-0.33,1.608,0.833,1.79
		c0.204,0.031,0.412,0.05,0.618,0.051C67.727,113.274,69.022,113.272,70.317,113.272z"/>
	<path fill-rule="evenodd" clip-rule="evenodd" d="M347.823,108.439c0.768-1.914,1.728-3.626,3.269-4.985
		c3.15-2.778,9.599-3.733,13.456-0.142c2.834,2.641,3.425,7.246,1.198,10.181c-1.421,1.873-3.84,2.601-6.054,1.824
		c-2.255-0.793-3.363-3.073-2.582-5.328c0.126-0.364,0.284-0.718,0.427-1.078c-1.686-0.432-3.801,0.508-5.004,2.218
		c-1.243,1.769-1.821,3.801-2,5.899c-0.237,2.785-0.267,5.589-0.355,8.386c-0.016,0.485,0.074,0.983,0.185,1.46
		c0.234,1.021,0.694,1.241,1.702,0.991c0.617-0.153,1.267-0.272,1.899-0.256c0.937,0.023,1.624,0.571,1.968,1.422
		c0.732,1.807,0.634,3.614-0.303,5.322c-0.603,1.1-1.609,1.574-2.866,1.468c-2.04-0.173-4.082-0.333-6.119-0.533
		c-2.5-0.245-4.97,0.021-7.439,0.354c-0.487,0.066-0.979,0.102-1.47,0.145c-2.243,0.193-3.494-0.676-3.908-2.92
		c-0.18-0.972-0.19-2.028-0.016-2.999c0.334-1.867,1.763-2.672,3.586-2.195c1.858,0.486,2.297,0.261,2.358-1.682
		c0.105-3.315,0.064-6.635,0.066-9.953c0-1.605-0.033-3.211-0.074-4.816c-0.007-0.305-0.091-0.617-0.191-0.907
		c-0.263-0.762-0.641-0.952-1.423-0.753c-0.15,0.037-0.298,0.089-0.445,0.135c-2.27,0.682-3.928-0.422-3.992-2.797
		c-0.03-1.089,0.103-2.237,0.437-3.27c0.482-1.49,1.662-2.128,3.225-1.979c0.771,0.074,1.541,0.216,2.297,0.393
		c1.265,0.295,2.51,0.266,3.771-0.031c0.753-0.178,1.525-0.326,2.296-0.376c1.211-0.075,1.844,0.485,2.005,1.676
		c0.06,0.437,0.089,0.878,0.094,1.317C347.831,105.9,347.823,107.169,347.823,108.439z"/>
	<path fill-rule="evenodd" clip-rule="evenodd" d="M270.324,122.024c-2.05,0-4.101,0.013-6.15-0.009
		c-0.62-0.007-1.248-0.057-1.855-0.174c-1.637-0.318-2.771-1.249-2.961-2.956c-0.118-1.063-0.117-2.188,0.097-3.231
		c0.335-1.641,1.719-2.552,3.765-2.649c1.372-0.064,2.75-0.037,4.126-0.038c2.984-0.005,5.97-0.001,8.953-0.001
		c0.155,0,0.312-0.001,0.468,0c3.975,0.052,5.968,3.213,4.329,6.868c-0.763,1.699-2.286,2.105-3.92,2.155
		c-2.282,0.068-4.566,0.018-6.851,0.018C270.324,122.012,270.324,122.018,270.324,122.024z"/>
</g>
</svg>
